<svg width="867" height="1082" viewBox="0 0 867 1082" fill="none" xmlns="http://www.w3.org/2000/svg">
<path fill-rule="evenodd" clip-rule="evenodd" d="M9.96301 1065.64H108.963V1066.64H9.96301V1065.64Z" fill="#F4E5E5" stroke="#F4E5E5" stroke-width="5"/>
<ellipse cx="454.463" cy="522.043" rx="50.5" ry="52.4134" fill="#89A7C5"/>
<mask id="path-3-outside-1_0_1" maskUnits="userSpaceOnUse" x="64.963" y="1.39774" width="802" height="1023" fill="black">
<rect fill="white" x="64.963" y="1.39774" width="802" height="1023"/>
<path fill-rule="evenodd" clip-rule="evenodd" d="M359.963 682.278V774.625H684.463L733.963 927.872H359.963V1020.72H861.963L533.463 4.39774H397.963L69.963 1020.22H168.463L465.963 99.241L653.963 681.279L359.963 682.278ZM465.463 563.973C493.353 563.973 515.963 540.954 515.963 512.558C515.963 484.162 493.353 461.143 465.463 461.143C437.573 461.143 414.963 484.162 414.963 512.558C414.963 540.954 437.573 563.973 465.463 563.973Z"/>
</mask>
<path fill-rule="evenodd" clip-rule="evenodd" d="M359.963 682.278V774.625H684.463L733.963 927.872H359.963V1020.72H861.963L533.463 4.39774H397.963L69.963 1020.22H168.463L465.963 99.241L653.963 681.279L359.963 682.278ZM465.463 563.973C493.353 563.973 515.963 540.954 515.963 512.558C515.963 484.162 493.353 461.143 465.463 461.143C437.573 461.143 414.963 484.162 414.963 512.558C414.963 540.954 437.573 563.973 465.463 563.973Z" fill="#F4E5E5"/>
<path d="M359.963 774.625H356.963V777.625H359.963V774.625ZM359.963 682.278L359.953 679.278L356.963 679.288V682.278H359.963ZM684.463 774.625L687.318 773.703L686.647 771.625H684.463V774.625ZM733.963 927.872V930.872H738.085L736.818 926.95L733.963 927.872ZM359.963 927.872V924.872H356.963V927.872H359.963ZM359.963 1020.72H356.963V1023.72H359.963V1020.72ZM861.963 1020.72V1023.72H866.086L864.818 1019.8L861.963 1020.72ZM533.463 4.39774L536.318 3.47506L535.646 1.39774H533.463V4.39774ZM397.963 4.39774V1.39774H395.779L395.108 3.47592L397.963 4.39774ZM69.963 1020.22L67.1081 1019.3L65.8418 1023.22H69.963V1020.22ZM168.463 1020.22V1023.22H170.647L171.318 1021.14L168.463 1020.22ZM465.963 99.241L468.818 98.3189L465.963 89.481L463.108 98.3189L465.963 99.241ZM653.963 681.279L653.973 684.279L658.08 684.265L656.818 680.357L653.963 681.279ZM362.963 774.625V682.278H356.963V774.625H362.963ZM684.463 771.625H359.963V777.625H684.463V771.625ZM736.818 926.95L687.318 773.703L681.608 775.547L731.108 928.794L736.818 926.95ZM359.963 930.872H733.963V924.872H359.963V930.872ZM362.963 1020.72V927.872H356.963V1020.72H362.963ZM861.963 1017.72H359.963V1023.72H861.963V1017.72ZM530.608 5.32041L859.108 1021.64L864.818 1019.8L536.318 3.47506L530.608 5.32041ZM397.963 7.39774H533.463V1.39774H397.963V7.39774ZM72.8179 1021.14L400.818 5.31955L395.108 3.47592L67.1081 1019.3L72.8179 1021.14ZM168.463 1017.22H69.963V1023.22H168.463V1017.22ZM463.108 98.3189L165.608 1019.3L171.318 1021.14L468.818 100.163L463.108 98.3189ZM656.818 680.357L468.818 98.3189L463.108 100.163L651.108 682.202L656.818 680.357ZM359.973 685.278L653.973 684.279L653.953 678.279L359.953 679.278L359.973 685.278ZM512.963 512.558C512.963 539.348 491.646 560.973 465.463 560.973V566.973C495.061 566.973 518.963 542.56 518.963 512.558H512.963ZM465.463 464.143C491.646 464.143 512.963 485.768 512.963 512.558H518.963C518.963 482.557 495.061 458.143 465.463 458.143V464.143ZM417.963 512.558C417.963 485.768 439.28 464.143 465.463 464.143V458.143C435.865 458.143 411.963 482.557 411.963 512.558H417.963ZM465.463 560.973C439.28 560.973 417.963 539.348 417.963 512.558H411.963C411.963 542.56 435.865 566.973 465.463 566.973V560.973Z" fill="#F4E5E5" mask="url(#path-3-outside-1_0_1)"/>
<g filter="url(#filter0_d_0_1)">
<path fill-rule="evenodd" clip-rule="evenodd" d="M397.661 4L398.265 4.79549L338.391 50.1254L10.9261 1064.29L69.6609 1019.82L70.2652 1020.62L9 1067L337.535 49.5199L397.661 4Z" fill="#F4E5E5"/>
<path fill-rule="evenodd" clip-rule="evenodd" d="M397.661 4L398.265 4.79549L338.391 50.1254L10.9261 1064.29L69.6609 1019.82L70.2652 1020.62L9 1067L337.535 49.5199L397.661 4Z" stroke="#F4E5E5" stroke-width="5"/>
</g>
<path d="M861.963 1020.72C838.532 1038.46 825.394 1048.4 801.963 1066.14H299.963M168.463 1020.22L108.463 1065.64M684.463 774.625L624.463 820.05" stroke="#F4E5E5" stroke-width="5"/>
<path d="M359.963 1020.72L299.963 1066.14M359.963 927.872L299.963 973.297M359.963 774.625L299.963 820.05M359.963 682.278L299.963 727.703" stroke="#F4E5E5" stroke-width="5"/>
<path d="M299.963 727.703V819.551H624.463M299.963 973.297V1066.14" stroke="#F4E5E5" stroke-width="5"/>
<path d="M624.963 819.551L659.963 927.872" stroke="#F4E5E5" stroke-width="5"/>
<path d="M574.31 661.37L580.963 681.279L429.963 209.06" stroke="#F4E5E5" stroke-width="5"/>
<path d="M397.963 4.39774L69.963 1020.22H168.463M359.963 927.872V1020.72H861.963M359.963 682.278V774.625H683.963L733.963 927.872H659.963M580.963 681.279H653.963L465.963 99.241L430.463 209.06" stroke="#F4E5E5" stroke-width="5"/>
<defs>
<filter id="filter0_d_0_1" x="0.182861" y="0.500183" width="405.588" height="1081.28" filterUnits="userSpaceOnUse" color-interpolation-filters="sRGB">
<feFlood flood-opacity="0" result="BackgroundImageFix"/>
<feColorMatrix in="SourceAlpha" type="matrix" values="0 0 0 0 0 0 0 0 0 0 0 0 0 0 0 0 0 0 127 0" result="hardAlpha"/>
<feOffset dy="4"/>
<feGaussianBlur stdDeviation="2"/>
<feComposite in2="hardAlpha" operator="out"/>
<feColorMatrix type="matrix" values="0 0 0 0 0 0 0 0 0 0 0 0 0 0 0 0 0 0 0.25 0"/>
<feBlend mode="normal" in2="BackgroundImageFix" result="effect1_dropShadow_0_1"/>
<feBlend mode="normal" in="SourceGraphic" in2="effect1_dropShadow_0_1" result="shape"/>
</filter>
</defs>
</svg>
