<svg xmlns="http://www.w3.org/2000/svg" width="226.5" viewBox="0 0 226.5 375" height="375" version="1.0"><defs><clipPath id="a"><path d="M 22.675781 65.566406 L 213 65.566406 L 213 310.066406 L 22.675781 310.066406 Z M 22.675781 65.566406"/></clipPath></defs><path fill="#C7EBF8" d="M 130.15625 187.84375 C 130.15625 181.089844 124.679688 175.613281 117.921875 175.613281 C 111.164062 175.613281 105.683594 181.089844 105.683594 187.84375 C 105.683594 194.597656 111.164062 200.074219 117.921875 200.074219 C 124.679688 200.074219 130.15625 194.597656 130.15625 187.84375"/><g clip-path="url(#a)"><path fill="#C7EBF8" d="M 134.144531 65.585938 L 101.695312 65.585938 L 22.851562 310.105469 L 46.273438 310.105469 L 117.921875 87.914062 L 163.304688 228.660156 L 92.46875 228.660156 L 92.46875 250.941406 L 170.488281 250.941406 L 182.382812 287.824219 L 92.46875 287.824219 L 92.46875 310.105469 L 212.988281 310.105469 L 134.144531 65.585938"/></g></svg>